<svg width="40" height="40" viewBox="0 0 40 40" fill="none" xmlns="http://www.w3.org/2000/svg">
<path fill-rule="evenodd" clip-rule="evenodd" d="M20 40C31.0457 40 40 31.0457 40 20C40 8.95428 31.0457 0 20 0C8.95435 0 0 8.95428 0 20C0 31.0457 8.95435 40 20 40ZM7 20C7 12.8175 12.8174 7 20 7C27.1826 7 33 12.8175 33 20C33 25.7363 29.2788 30.6113 24.1438 32.3337C23.4937 32.4637 23.25 32.0575 23.25 31.7162C23.25 31.5696 23.2517 31.3157 23.2542 30.9777C23.259 30.3048 23.2664 29.2986 23.2664 28.1412C23.2664 26.9225 22.8601 26.1425 22.3887 25.7363C25.2812 25.4113 28.3201 24.3063 28.3201 19.3175C28.3201 17.8875 27.8162 16.7338 26.9875 15.8237C27.1174 15.4988 27.5725 14.1663 26.8574 12.3787C26.8574 12.3787 25.7688 12.0212 23.2825 13.7112C22.2424 13.4188 21.1375 13.2725 20.0325 13.2725C18.9275 13.2725 17.8225 13.4188 16.7825 13.7112C14.2961 12.0375 13.2075 12.3787 13.2075 12.3787C12.4924 14.1663 12.9475 15.4988 13.0774 15.8237C12.2488 16.7338 11.7451 17.9037 11.7451 19.3175C11.7451 24.29 14.7676 25.4113 17.6599 25.7363C17.2861 26.0613 16.9451 26.63 16.8313 27.475C16.0837 27.8162 14.2151 28.3688 13.0449 26.4025C12.8013 26.0125 12.0701 25.0538 11.0461 25.07C9.95752 25.0862 10.6074 25.6875 11.0625 25.9313C11.615 26.24 12.2488 27.3937 12.395 27.7675C12.655 28.4988 13.5 29.8962 16.7664 29.295C16.7664 29.8939 16.7712 30.473 16.7756 30.9244C16.7793 31.2936 16.7825 31.5773 16.7825 31.7162C16.7825 32.0575 16.5388 32.4475 15.8887 32.3337C10.7212 30.6113 7 25.7525 7 20Z" fill="#2C3333"/>
</svg>
