<svg width="40" height="40" viewBox="0 0 40 40" fill="none" xmlns="http://www.w3.org/2000/svg">
<path fill-rule="evenodd" clip-rule="evenodd" d="M20 40C31.0457 40 40 31.0457 40 20C40 8.9543 31.0457 0 20 0C8.9543 0 0 8.9543 0 20C0 31.0457 8.9543 40 20 40ZM8 10.8C8 9.2536 9.2536 8 10.8 8H29.2C30.7464 8 32 9.2536 32 10.8V29.2C32 30.7464 30.7464 32 29.2 32H10.8C9.2536 32 8 30.7464 8 29.2V10.8ZM19.262 10.172V20H16.868V10.172H19.262ZM24.6789 10.172C25.7149 10.172 26.6202 10.3773 27.3949 10.788C28.1696 11.1987 28.7669 11.7773 29.1869 12.524C29.6162 13.2613 29.8309 14.1153 29.8309 15.086C29.8309 16.0473 29.6162 16.9013 29.1869 17.648C28.7669 18.3947 28.1649 18.9733 27.3809 19.384C26.6062 19.7947 25.7056 20 24.6789 20H20.9969V10.172H24.6789ZM24.5249 17.928C25.4302 17.928 26.1349 17.6807 26.6389 17.186C27.1429 16.6913 27.3949 15.9913 27.3949 15.086C27.3949 14.1807 27.1429 13.476 26.6389 12.972C26.1349 12.468 25.4302 12.216 24.5249 12.216H23.3909V17.928H24.5249Z" fill="#2C3333"/>
</svg>
