<svg width="40" height="40" viewBox="0 0 40 40" fill="none" xmlns="http://www.w3.org/2000/svg">
<path d="M22.7532 16.6474C22.2274 16.2165 21.5706 15.9051 20.8732 15.7517C20.6407 15.7021 20.5459 15.6931 20.09 15.6886C19.8056 15.6841 19.5415 15.6863 19.5032 15.6908C18.6523 15.8149 17.9143 16.1262 17.3004 16.6135C16.4111 17.3242 15.8401 18.3529 15.6979 19.4967C15.655 19.8509 15.6821 20.5164 15.7543 20.8616C16.041 22.2174 16.8986 23.3116 18.14 23.9116C18.6365 24.1485 19.1059 24.2749 19.6837 24.3222C21.4555 24.4689 23.1595 23.4762 23.9291 21.8474C24.6108 20.4036 24.4415 18.7026 23.4845 17.4144C23.3175 17.1888 22.9744 16.8278 22.7532 16.6474Z" fill="#2C3333"/>
<path fill-rule="evenodd" clip-rule="evenodd" d="M24.6717 9.38083C26.0823 9.44851 26.6691 9.52747 27.3169 9.73277C28.073 9.9719 28.5989 10.2787 29.1157 10.7795C29.531 11.1856 29.777 11.5195 29.9982 11.982C30.3932 12.8144 30.5466 13.577 30.6189 15.0682C30.6888 16.4917 30.6888 23.4334 30.6189 24.9268C30.5647 26.118 30.4586 26.8061 30.2262 27.4693C29.9756 28.1867 29.6777 28.6673 29.1744 29.1681C28.6733 29.6689 28.1813 29.9712 27.4794 30.2171C26.7775 30.4608 26.0846 30.5623 24.8071 30.6097C24.4595 30.6232 24.0736 30.639 23.9495 30.6458C23.5319 30.6683 16.5443 30.657 15.831 30.6345C14.2782 30.5849 13.714 30.5307 13.0707 30.3728C12.3801 30.2036 11.782 29.9351 11.299 29.5787C11.053 29.396 10.5452 28.8771 10.3691 28.6267C9.9719 28.0649 9.67849 27.3114 9.53855 26.497C9.46859 26.0796 9.43022 25.6465 9.38733 24.7802C9.35348 24.0786 9.34897 23.4469 9.34671 20.1103C9.34671 16.3135 9.35799 15.5284 9.42796 14.4816C9.49567 13.4574 9.70106 12.6001 10.0373 11.9256C10.421 11.1608 11.0914 10.4795 11.8475 10.0824C12.5494 9.71472 13.398 9.50266 14.4588 9.43046C14.8109 9.40565 15.9055 9.36278 16.3998 9.3515C17.2846 9.33346 24.209 9.35827 24.6717 9.38083ZM26.5789 11.5488C26.29 11.6233 26.0959 11.7361 25.8656 11.9662C25.6941 12.1354 25.6445 12.2008 25.5677 12.361C25.4481 12.6069 25.4052 12.7941 25.4052 13.0603C25.4052 13.3266 25.4481 13.5138 25.5655 13.7574C25.6399 13.9109 25.6964 13.9853 25.8544 14.1432C25.9604 14.2515 26.1049 14.3711 26.1726 14.4094C26.791 14.7546 27.5539 14.6576 28.0436 14.1658C28.2423 13.9695 28.3619 13.7778 28.4454 13.5228C28.4973 13.3672 28.5041 13.304 28.5041 13.0603C28.5041 12.819 28.4973 12.7535 28.4476 12.6046C28.3077 12.1828 28.0346 11.8602 27.66 11.6752C27.5426 11.6165 27.3778 11.5556 27.2898 11.5376C27.0709 11.4924 26.7842 11.4969 26.5789 11.5488ZM14.0525 16.9745C15.1043 14.917 17.1266 13.5544 19.4355 13.3469C19.6815 13.3243 20.4376 13.3356 20.7107 13.3649C21.53 13.4506 22.2025 13.6469 22.9564 14.0191C23.6606 14.3643 24.1639 14.7275 24.7191 15.2802C25.4842 16.045 26.0078 16.8888 26.3419 17.8994C26.7526 19.1312 26.7955 20.4126 26.4728 21.6669C25.8702 24.0177 24.0059 25.8766 21.6518 26.4744C19.9027 26.9166 18.0339 26.6301 16.4991 25.6826C14.8651 24.6719 13.7411 23.007 13.4228 21.1232C13.1836 19.7133 13.4093 18.2333 14.0525 16.9745Z" fill="#2C3333"/>
<path fill-rule="evenodd" clip-rule="evenodd" d="M20 40C31.0457 40 40 31.0457 40 20C40 8.9543 31.0457 0 20 0C8.9543 0 0 8.9543 0 20C0 31.0457 8.9543 40 20 40ZM16.7384 7.00528C15.6076 7.02107 14.267 7.08649 13.7027 7.14966C12.037 7.33691 10.6964 7.87158 9.61755 8.77848C9.33317 9.01762 8.79375 9.5771 8.58385 9.85233C8.0196 10.59 7.59303 11.515 7.34927 12.5302C7.16194 13.3062 7.101 13.9063 7.02878 15.666C6.99041 16.609 6.99041 23.395 7.02878 24.329C7.07392 25.4299 7.09874 25.8405 7.1484 26.2669C7.40569 28.5522 8.30172 30.2374 9.89967 31.4444C10.8634 32.1708 12.0799 32.6378 13.4973 32.8228C14.513 32.9559 15.4361 32.983 19.1759 32.9965C25.3556 33.0191 26.642 32.9424 28.0978 32.4709C28.978 32.1844 29.6506 31.8279 30.3029 31.3045C30.5534 31.1015 31.1493 30.4991 31.3592 30.2352C32.0882 29.3147 32.5779 28.1439 32.7946 26.7993C32.8736 26.3143 32.9142 25.8766 32.9594 24.972C32.9955 24.2861 33 23.6996 33 19.9975C33 16.2954 32.9955 15.7089 32.9594 15.0231C32.9165 14.1613 32.8962 13.9312 32.8285 13.4326C32.6998 12.4806 32.4651 11.6932 32.0746 10.9059C31.7451 10.2359 31.4246 9.78465 30.892 9.2387C30.0975 8.42881 29.3143 7.93926 28.1903 7.55574C27.2198 7.22411 26.4773 7.12033 24.5137 7.03461C24.0014 7.01205 17.8375 6.98949 16.7384 7.00528Z" fill="#2C3333"/>
</svg>
