<svg width="40" height="40" viewBox="0 0 40 40" fill="none" xmlns="http://www.w3.org/2000/svg">
<path d="M15.9641 12.6781C15.7672 11.7172 14.9469 10.9016 13.9766 10.6953C13.3719 10.5688 12.9125 10.625 12.3312 10.9062C11.6797 11.2203 11.1735 11.8203 10.9766 12.5141C10.8547 12.9359 10.8734 13.5875 11.0187 14.0047C11.3281 14.9 12.0547 15.5281 12.9922 15.7203C14.736 16.0719 16.3297 14.4406 15.9641 12.6781Z" fill="#2C3333"/>
<path d="M28.0765 17.7875C27.575 17.2672 27.0734 16.9859 26.2812 16.7797C25.9062 16.6812 25.7047 16.6578 25.0156 16.6437C23.9984 16.625 23.389 16.7234 22.7281 17.0094C22.2266 17.2297 21.6266 17.7172 21.2797 18.1953L21.1766 18.3359L21.1719 17.8062C21.1719 17.2062 21.1203 17.0516 20.8766 16.9062C20.736 16.8172 20.6328 16.8125 19.1797 16.8125C17.75 16.8125 17.6234 16.8172 17.4875 16.9016C17.4443 16.9282 17.4074 16.9438 17.3757 16.9666C17.1735 17.1129 17.1875 17.5583 17.1875 23.1031C17.1875 28.6109 17.1922 28.8922 17.2719 29.0422C17.4453 29.3656 17.5016 29.375 19.1703 29.375C20.8016 29.375 20.8859 29.3609 21.0641 29.1031C21.1437 28.9859 21.1484 28.7563 21.1719 25.625C21.1953 22.3672 21.2 22.2641 21.2985 21.9125C21.4672 21.3125 21.7062 20.8813 22.0438 20.5672C22.4515 20.1828 22.7375 20.075 23.3516 20.075C23.8859 20.0703 24.0875 20.1219 24.4531 20.3375C24.875 20.5906 25.1562 21.0594 25.3344 21.7812C25.3953 22.0391 25.4094 22.6063 25.4235 25.5266C25.4422 28.8875 25.4469 28.9719 25.5359 29.1031C25.7281 29.3703 25.7609 29.375 27.4625 29.375C28.925 29.375 29.0328 29.3703 29.1735 29.2812C29.2578 29.2344 29.361 29.1359 29.4078 29.0609C29.4875 28.9391 29.4922 28.7281 29.4922 25.4375C29.4875 22.9906 29.4688 21.7625 29.4266 21.3359C29.2625 19.6578 28.8547 18.5844 28.0765 17.7875Z" fill="#2C3333"/>
<path d="M15.3734 17.1875C15.3265 17.0984 15.2188 16.9766 15.1297 16.9203C14.9703 16.8125 14.9515 16.8125 13.4422 16.8125C12.0172 16.8125 11.9047 16.8172 11.7781 16.9016C11.7031 16.9531 11.6047 17.0562 11.5531 17.1313C11.4688 17.2625 11.4688 17.4781 11.4781 23.1313L11.4922 28.9906L11.6094 29.1172C11.8484 29.375 11.8625 29.375 13.4469 29.375C15.0594 29.375 15.1203 29.3656 15.3312 29.0797C15.4296 28.9485 15.4297 28.9297 15.4437 23.1581V23.15C15.4531 17.6984 15.4484 17.3422 15.3734 17.1875Z" fill="#2C3333"/>
<path fill-rule="evenodd" clip-rule="evenodd" d="M20 40C31.0457 40 40 31.0457 40 20C40 8.95432 31.0457 0 20 0C8.95428 0 0 8.95432 0 20C0 31.0457 8.95428 40 20 40ZM8.11249 9.54688C8.38904 8.72656 9.02655 8.17813 9.85156 8.04688C9.98279 8.02814 14.6234 8.01407 20.1641 8.01874L30.2422 8.02344L30.5094 8.12656C31.1937 8.38907 31.6578 8.86249 31.8875 9.54688C31.9719 9.79532 31.9766 10.1562 31.9766 20C31.9766 29.8438 31.9719 30.2047 31.8875 30.4531C31.6578 31.1375 31.1937 31.6109 30.5094 31.8734L30.2422 31.9766H9.75781L9.4906 31.8734C8.80627 31.6109 8.34216 31.1375 8.11249 30.4531C8.02814 30.2047 8.02344 29.8438 8.02344 20C8.02344 10.1562 8.02814 9.79532 8.11249 9.54688Z" fill="#2C3333"/>
</svg>
