<svg width="40" height="40" viewBox="0 0 40 40" fill="none" xmlns="http://www.w3.org/2000/svg">
<path fill-rule="evenodd" clip-rule="evenodd" d="M20 40C31.0457 40 40 31.0457 40 20C40 8.95428 31.0457 0 20 0C8.95435 0 0 8.95428 0 20C0 31.0457 8.95435 40 20 40ZM8.59888 29.0732C8.99805 29.4725 9.46948 29.6721 10.0132 29.6721H29.9797C30.5254 29.6721 30.9985 29.4725 31.3992 29.0732C31.7998 28.674 32 28.2026 32 27.6589V12.4203C32 11.8747 31.7998 11.4016 31.3992 11.001C30.9985 10.6003 30.5254 10.4 29.9797 10.4H10.0132C9.46948 10.4 8.99805 10.6003 8.59888 11.001C8.19971 11.4016 8 11.8747 8 12.4203V27.6589C8 28.2026 8.19971 28.674 8.59888 29.0732ZM20.5405 20.4229L29.9797 14.2081V27.6589H10.0132V14.4361V14.2081L19.4524 20.4229C19.5449 20.4719 19.6316 20.5123 19.7129 20.5442C19.7939 20.5761 19.8884 20.592 19.9963 20.592C20.1042 20.592 20.199 20.5761 20.28 20.5442C20.3613 20.5123 20.448 20.4719 20.5405 20.4229ZM29.8616 12.4203L19.9963 18.8621L10.1609 12.4203H29.8616Z" fill="#2C3333"/>
</svg>
