<svg width="40" height="40" viewBox="0 0 40 40" fill="none" xmlns="http://www.w3.org/2000/svg">
<path fill-rule="evenodd" clip-rule="evenodd" d="M20 40C31.0457 40 40 31.0457 40 20C40 8.95432 31.0457 0 20 0C8.95435 0 0 8.95432 0 20C0 31.0457 8.95435 40 20 40ZM9.10083 29.5561L10.5479 31L20.0044 21.5634L29.4612 31L30.9082 29.5561L21.4514 20.1195L23.3372 18.2305C24.2603 18.6087 25.2366 18.6559 26.2668 18.3721C27.2969 18.0883 28.2188 17.5278 29.033 16.6905C29.9729 15.7323 30.5913 14.5964 30.8884 13.2827C31.1853 11.9689 30.8901 10.8694 30.0027 9.98392C29.1357 9.11862 28.0337 8.82407 26.697 9.10022C25.3604 9.37637 24.2422 9.95325 23.3425 10.8308C22.4526 11.7285 21.8743 12.7014 21.6077 13.7495C21.3411 14.7976 21.425 15.82 21.8599 16.8168L9.10083 29.5561ZM10.6428 16.6905L14.2207 20.2608L18.0015 16.488L10.5176 9.02725C9.49927 10.1643 8.99341 11.4542 9 12.897C9.00659 14.3398 9.5542 15.6043 10.6428 16.6905Z" fill="#2C3333"/>
</svg>
