<svg width="40" height="40" viewBox="0 0 40 40" fill="none" xmlns="http://www.w3.org/2000/svg">
<path d="M22.1191 15.4667C21.5593 16.032 20.8508 16.3146 19.9944 16.3146C19.1377 16.3146 18.4299 16.0316 17.8711 15.4656C17.312 14.8997 17.0327 14.1829 17.0327 13.3152C17.0327 12.4498 17.3127 11.7348 17.8726 11.1702C18.4326 10.6056 19.1409 10.3233 19.9976 10.3233C20.8542 10.3233 21.562 10.6055 22.1208 11.1699C22.6797 11.7342 22.9592 12.4506 22.9592 13.3192C22.9592 14.1856 22.6792 14.9014 22.1191 15.4667Z" fill="#2C3333"/>
<path d="M28.6938 27.6768H11.2981V26.607C11.2981 26.2465 11.3994 25.9027 11.6018 25.5757C11.8042 25.2487 12.064 25.0064 12.3811 24.8488C13.7686 24.1613 15.0657 23.6895 16.2717 23.4335C17.478 23.1774 18.7183 23.0494 19.9919 23.0494C21.2766 23.0494 22.5081 23.1774 23.6863 23.4335C24.8647 23.6895 26.1628 24.1617 27.5806 24.8501C27.8955 25.0076 28.1597 25.2498 28.3733 25.5765C28.5869 25.9033 28.6938 26.2468 28.6938 26.607V27.6768Z" fill="#2C3333"/>
<path fill-rule="evenodd" clip-rule="evenodd" d="M20 40C31.0457 40 40 31.0457 40 20C40 8.95428 31.0457 0 20 0C8.95435 0 0 8.95428 0 20C0 31.0457 8.95435 40 20 40ZM16.2061 17.1503C17.187 18.142 18.45 18.6379 19.9944 18.6379C21.5388 18.6379 22.8035 18.142 23.7883 17.1503C24.7732 16.1585 25.2656 14.882 25.2656 13.3206C25.2656 11.7593 24.7732 10.4822 23.7883 9.48932C22.8035 8.49646 21.5388 8 19.9944 8C18.45 8 17.187 8.49646 16.2061 9.48932C15.2251 10.4822 14.7344 11.7593 14.7344 13.3206C14.7344 14.882 15.2251 16.1585 16.2061 17.1503ZM9 26.576V30H31V26.5739C31 25.6723 30.7764 24.8987 30.3289 24.2531C29.8816 23.6074 29.2883 23.1188 28.5488 22.787C27.0386 22.1179 25.5901 21.6057 24.2034 21.2507C22.8167 20.8956 21.4136 20.718 19.9939 20.718C18.5845 20.718 17.1802 20.8899 15.7812 21.2336C14.3823 21.5773 12.9241 22.0929 11.4067 22.7803C10.698 23.1164 10.1196 23.6082 9.67188 24.2558C9.22388 24.9034 9 25.6768 9 26.576Z" fill="#2C3333"/>
</svg>
